<?xml version="1.0" encoding="UTF-8"?>
<svg version="1.1" xmlns="http://www.w3.org/2000/svg" width="64" height="68">
<path d="M0 0 C21.12 0 42.24 0 64 0 C64 22.44 64 44.88 64 68 C42.88 68 21.76 68 0 68 C0 45.56 0 23.12 0 0 Z " fill="#F6F2F1" transform="translate(0,0)"/>
<path d="M0 0 C3.96 0 7.92 0 12 0 C12 0.33 12 0.66 12 1 C9.36 1.33 6.72 1.66 4 2 C3.67 23.12 3.34 44.24 3 66 C12.4097909 66.10919825 12.4097909 66.10919825 15.625 62.4375 C16.07875 61.633125 16.5325 60.82875 17 60 C15.02 59.67 13.04 59.34 11 59 C11 42.83 11 26.66 11 10 C15.29 10.33 19.58 10.66 24 11 C23.34 12.32 22.68 13.64 22 15 C20.35 15 18.7 15 17 15 C17 27.54 17 40.08 17 53 C18.65 53 20.3 53 22 53 C22.4021875 51.91138672 22.4021875 51.91138672 22.8125 50.80078125 C23.98670381 48.03135976 25.3394324 45.69080566 27 43.1875 C27.515625 42.39730469 28.03125 41.60710938 28.5625 40.79296875 C29.036875 40.20128906 29.51125 39.60960937 30 39 C30.66 39 31.32 39 32 39 C33.63139937 40.92587579 35.13723225 42.84326717 36.625 44.875 C37.04523437 45.43058594 37.46546875 45.98617187 37.8984375 46.55859375 C41 50.73764712 41 50.73764712 41 53 C43.31 53 45.62 53 48 53 C47.44687134 52.18378174 47.44687134 52.18378174 46.88256836 51.35107422 C45.21618825 48.870623 43.5768423 46.3733943 41.9375 43.875 C41.35677734 43.0190625 40.77605469 42.163125 40.17773438 41.28125 C36.0715501 34.96404342 36.0715501 34.96404342 35.77734375 31 C37.64015616 26.42926539 40.02153125 22.31072216 42.625 18.125 C43.38876953 16.80628906 43.38876953 16.80628906 44.16796875 15.4609375 C44.93947266 14.21570313 44.93947266 14.21570313 45.7265625 12.9453125 C46.18627441 12.18750488 46.64598633 11.42969727 47.11962891 10.64892578 C49 9 49 9 56 9 C56 25.83 56 42.66 56 60 C45.11 60 34.22 60 23 60 C22.34 61.98 21.68 63.96 21 66 C34.53 66 48.06 66 62 66 C62 66.33 62 66.66 62 67 C56.86705069 67.14655547 51.73400121 67.28867734 46.60083008 67.42724609 C44.86642401 67.47462468 43.13204672 67.52307268 41.39770508 67.57275391 C27.58794557 67.96720346 13.82401402 68 0 68 C0 45.56 0 23.12 0 0 Z " fill="#F9F8F8" transform="translate(0,0)"/>
<path d="M0 0 C5.61 0 11.22 0 17 0 C17 20.79 17 41.58 17 63 C3.47 63 -10.06 63 -24 63 C-23.34 61.02 -22.68 59.04 -22 57 C-11.11 57 -0.22 57 11 57 C11 40.17 11 23.34 11 6 C4.40657552 6.24234574 4.40657552 6.24234574 2.08789062 8.85424805 C1.61544922 9.64871338 1.14300781 10.44317871 0.65625 11.26171875 C0.13289063 12.13376953 -0.39046875 13.00582031 -0.9296875 13.90429688 C-1.44789062 14.82275391 -1.96609375 15.74121094 -2.5 16.6875 C-3.04914062 17.58662109 -3.59828125 18.48574219 -4.1640625 19.41210938 C-7.12436734 24.48011673 -7.12436734 24.48011673 -8.16015625 30.16015625 C-6.56478725 34.06531874 -4.38198962 37.32704205 -1.9375 40.75 C3 47.76892906 3 47.76892906 3 50 C-0.19140625 50.3671875 -0.19140625 50.3671875 -4 50 C-6.07289344 48.00342812 -7.39654405 46.46725304 -8.9375 44.125 C-9.33517578 43.56941406 -9.73285156 43.01382813 -10.14257812 42.44140625 C-13 38.359375 -13 38.359375 -13 36 C-16.66059351 39.25016333 -18.6935104 43.4878916 -21.0859375 47.69921875 C-21.71757812 48.45847656 -22.34921875 49.21773437 -23 50 C-24.65 50 -26.3 50 -28 50 C-28 37.46 -28 24.92 -28 12 C-26.02 12 -24.04 12 -22 12 C-21.67 18.93 -21.34 25.86 -21 33 C-18.81249597 29.58636269 -16.62527173 26.17254839 -14.4387207 22.75830078 C-13.69701631 21.60032223 -12.95515823 20.44244209 -12.21313477 19.28466797 C-11.13776475 17.60671367 -10.0630198 15.92835883 -8.98828125 14.25 C-8.2813916 13.17878906 -7.57450195 12.10757812 -6.84619141 11.00390625 C-4.97387279 8.14853808 -4.97387279 8.14853808 -3.96240234 5.40234375 C-3.04296875 3.1875 -3.04296875 3.1875 0 0 Z " fill="#30302F" transform="translate(45,3)"/>
<path d="M0 0 C11.55 0 23.1 0 35 0 C34 5 34 5 33 7 C24.42 7 15.84 7 7 7 C7 23.83 7 40.66 7 58 C8.98 58 10.96 58 13 58 C11.125 62.875 11.125 62.875 10 64 C6.7 64 3.4 64 0 64 C0 42.88 0 21.76 0 0 Z " fill="#D0454A" transform="translate(3,2)"/>
<path d="M0 0 C0.99 0 1.98 0 3 0 C4.22152029 5.78923962 4.20534363 11.52843989 4.28125 17.41796875 C4.30886414 19.05926506 4.30886414 19.05926506 4.33703613 20.73371887 C4.41551524 25.40270482 4.48359643 30.07182753 4.55224609 34.7409668 C4.60392953 38.15420744 4.6611742 41.56732325 4.71875 44.98046875 C4.73232544 46.03985153 4.74590088 47.09923431 4.7598877 48.1907196 C4.77660522 49.17216446 4.79332275 50.15360931 4.81054688 51.16479492 C4.82307495 52.02828049 4.83560303 52.89176605 4.84851074 53.78141785 C4.91870236 56.17421644 4.91870236 56.17421644 6 59 C6.66 59.33 7.32 59.66 8 60 C5.6739143 60.38063221 3.33944736 60.71269945 1 61 C0 60 0 60 -0.12025452 57.60191345 C-0.11803391 56.53824051 -0.11581329 55.47456757 -0.11352539 54.37866211 C-0.11344986 53.17749252 -0.11337433 51.97632294 -0.11329651 50.73875427 C-0.10813522 49.4314888 -0.10297394 48.12422333 -0.09765625 46.77734375 C-0.09579198 45.43355868 -0.09436812 44.08977293 -0.09336853 42.74598694 C-0.08954402 39.20317723 -0.07971432 35.6604083 -0.06866455 32.11761475 C-0.05844899 28.50484773 -0.0538706 24.89207416 -0.04882812 21.27929688 C-0.03809198 14.1861812 -0.02101636 7.09309326 0 0 Z " fill="#D71A1F" transform="translate(5,4)"/>
<path d="M0 0 C8.91 0 17.82 0 27 0 C27.33 1.32 27.66 2.64 28 4 C19.42 4 10.84 4 2 4 C2 20.83 2 37.66 2 55 C1.67 55 1.34 55 1 55 C0.67 36.85 0.34 18.7 0 0 Z " fill="#E24D54" transform="translate(8,5)"/>
<path d="M0 0 C0.33 0 0.66 0 1 0 C1 14.85 1 29.7 1 45 C1.99 45.33 2.98 45.66 4 46 C4 46.66 4 47.32 4 48 C4.66 48.33 5.32 48.66 6 49 C2.535 49.495 2.535 49.495 -1 50 C-2.18029759 47.63940482 -2.09432302 46.31692311 -2.03759766 43.68969727 C-2.02072906 42.79859756 -2.00386047 41.90749786 -1.98648071 40.98939514 C-1.9625827 40.02480881 -1.93868469 39.06022247 -1.9140625 38.06640625 C-1.89282318 37.07752914 -1.87158386 36.08865204 -1.84970093 35.06980896 C-1.80339068 32.975762 -1.75445861 30.88177164 -1.703125 28.7878418 C-1.62540896 25.57938366 -1.55819935 22.37082725 -1.4921875 19.16210938 C-1.44594411 17.13019386 -1.39908946 15.09829215 -1.3515625 13.06640625 C-1.33171295 12.10384415 -1.3118634 11.14128204 -1.29141235 10.14955139 C-1.26823944 9.25529953 -1.24506653 8.36104767 -1.22119141 7.43969727 C-1.20263092 6.65297134 -1.18407043 5.86624542 -1.16494751 5.05567932 C-1 3 -1 3 0 0 Z " fill="#E12226" transform="translate(7,15)"/>
<path d="M0 0 C0.33 0 0.66 0 1 0 C1 20.79 1 41.58 1 63 C4.3 63 7.6 63 11 63 C10.505 63.99 10.505 63.99 10 65 C6.04 65 2.08 65 -2 65 C-1.67 63.35 -1.34 61.7 -1 60 C-0.88881428 57.9767501 -0.82453579 55.9506432 -0.79467773 53.92456055 C-0.7647599 52.12325935 -0.7647599 52.12325935 -0.73423767 50.28556824 C-0.71752518 48.99894791 -0.70081268 47.71232758 -0.68359375 46.38671875 C-0.66300365 45.04864388 -0.64200665 43.71057521 -0.62062073 42.37251282 C-0.56561225 38.86271206 -0.51611006 35.35285468 -0.46777344 31.84295654 C-0.41740272 28.25658165 -0.3617982 24.67028827 -0.30664062 21.08398438 C-0.19931897 14.0560604 -0.09781707 7.02806321 0 0 Z " fill="#FEEEF2" transform="translate(2,3)"/>
<path d="M0 0 C1.98 0 3.96 0 6 0 C4.125 4.875 4.125 4.875 3 6 C1.48071962 6.07179964 -0.04167482 6.08392007 -1.5625 6.0625 C-2.38878906 6.05347656 -3.21507812 6.04445313 -4.06640625 6.03515625 C-4.70449219 6.02355469 -5.34257813 6.01195313 -6 6 C-6 5.67 -6 5.34 -6 5 C-3.69 4.34 -1.38 3.68 1 3 C0.67 2.01 0.34 1.02 0 0 Z " fill="#C63233" transform="translate(10,60)"/>
<path d="M0 0 C2.64 0 5.28 0 8 0 C7.01 1.485 7.01 1.485 6 3 C3.5625 2.625 3.5625 2.625 1 2 C0.67 1.34 0.34 0.68 0 0 Z " fill="#FDFEFC" transform="translate(38,0)"/>
</svg>
