
<!-- Generator: visioncortex VTracer 0.6.4 -->
<svg version="1.1" xmlns="http://www.w3.org/2000/svg" viewBox="0 0 1024 1024" preserveAspectRatio="xMidYMid meet">
<path d="M0 0 C337.92 0 675.84 0 1024 0 C1024 337.92 1024 675.84 1024 1024 C686.08 1024 348.16 1024 0 1024 C0 686.08 0 348.16 0 0 Z " fill="#FEFEFE" transform="translate(0,0)"/>
<path d="M0 0 C154.44 0 308.88 0 468 0 C468 148.5 468 297 468 450 C313.56 450 159.12 450 0 450 C0 301.5 0 153 0 0 Z " fill="#FEFEFE" transform="translate(278,133)"/>
<path d="M0 0 C154.44 0 308.88 0 468 0 C468 148.5 468 297 468 450 C313.56 450 159.12 450 0 450 C0 301.5 0 153 0 0 Z M30 29 C30 158.36 30 287.72 30 421 C164.64 421 299.28 421 438 421 C438 291.64 438 162.28 438 29 C303.36 29 168.72 29 30 29 Z " fill="#CFA15B" transform="translate(278,133)"/>
<path d="M0 0 C5.891 5.05 11.642 10.198 17.334 15.464 C18.961 16.964 20.595 18.455 22.23 19.945 C31.829 28.748 41.016 37.945 50.169 47.206 C54.989 52.071 59.835 56.823 65.049 61.272 C69.915 65.582 74.376 70.342 78.934 74.973 C82.519 78.593 86.099 82.151 89.969 85.469 C95.837 90.506 101.155 96.112 106.578 101.617 C110.251 105.324 113.904 108.987 117.875 112.375 C124.129 117.737 129.798 123.744 135.582 129.603 C141.038 135.123 146.491 140.571 152.404 145.609 C154.937 147.817 157.132 150.305 159.359 152.812 C160.954 154.239 160.954 154.239 163.141 153.812 C165.19 153.153 165.19 153.153 166 151 C166.66 151 167.32 151 168 151 C168.226 150.438 168.451 149.876 168.684 149.297 C170.386 146.326 172.497 144.522 175.062 142.25 C176.166 141.258 177.269 140.264 178.371 139.27 C178.963 138.738 179.554 138.206 180.164 137.659 C192.484 126.531 204.245 114.85 215.915 103.049 C220.814 98.105 225.73 93.264 231.031 88.746 C235.214 85.036 239.077 80.982 243 77 C248.222 71.699 253.451 66.52 259.102 61.676 C262.39 58.773 265.431 55.63 268.5 52.5 C272.885 48.067 277.278 43.757 282.047 39.734 C284.641 37.431 287.065 34.968 289.5 32.5 C293.111 28.846 296.79 25.35 300.699 22.016 C304.517 18.671 308.203 15.181 311.902 11.706 C322.276 2 322.276 2 325 2 C325 104.96 325 207.92 325 314 C311.8 314 298.6 314 285 314 C284.505 204.605 284.505 204.605 284 93 C281.03 95.97 278.06 98.94 275 102 C270.938 105.598 270.938 105.598 268.961 107.297 C265.556 110.253 262.281 113.346 259 116.438 C258.273 117.121 257.546 117.805 256.797 118.51 C250.925 124.062 245.188 129.739 239.529 135.508 C235.781 139.308 231.906 142.873 227.864 146.359 C225.284 148.631 222.902 151.04 220.5 153.5 C217.497 156.576 214.468 159.488 211.207 162.289 C206.627 166.254 202.423 170.548 198.188 174.875 C192.616 180.514 187.067 185.766 180.812 190.633 C174.471 195.97 168.78 202.067 163 208 C159.216 206.222 156.577 203.979 153.5 201.125 C152.98 200.643 152.459 200.161 151.923 199.665 C147.583 195.617 143.393 191.426 139.223 187.204 C135.959 183.913 132.587 180.84 129.059 177.84 C126.435 175.495 123.97 173.004 121.5 170.5 C118.508 167.468 115.508 164.498 112.25 161.75 C107.402 157.625 102.996 153.046 98.542 148.505 C94.942 144.855 91.273 141.452 87.27 138.246 C86.641 137.629 86.641 137.629 86 137 C86 136.34 86 135.68 86 135 C85.405 134.732 84.811 134.464 84.198 134.188 C81.978 132.988 80.576 131.793 78.828 129.988 C78.251 129.399 77.673 128.81 77.078 128.203 C76.475 127.579 75.872 126.955 75.25 126.312 C69.795 120.726 69.795 120.726 64 115.5 C59.393 111.612 55.225 107.275 51.01 102.973 C50.435 102.39 49.861 101.807 49.27 101.207 C48.76 100.686 48.251 100.165 47.726 99.628 C45.599 97.622 43.283 95.826 41 94 C40.67 166.6 40.34 239.2 40 314 C26.8 314 13.6 314 0 314 C0 210.38 0 106.76 0 0 Z " fill="#1C282C" transform="translate(350,201)"/>
<path d="M0 0 C75.099 0 75.099 0 90 13 C96.855 20.236 99.926 29.311 100.035 39.176 C99.487 50.549 96.453 58.422 88.594 66.727 C84.492 70.322 79.934 72.731 75 75 C80.092 84.214 85.837 92.966 91.668 101.725 C95.166 107.019 98.309 112.251 101 118 C96.981 118.224 92.964 118.386 88.939 118.494 C87.573 118.539 86.207 118.601 84.843 118.679 C73.613 119.306 73.613 119.306 69.986 116.37 C68.386 113.996 67.209 111.594 66 109 C64.827 107.076 63.633 105.165 62.422 103.266 C61.196 101.262 59.972 99.256 58.75 97.25 C57.814 95.728 57.814 95.728 56.859 94.176 C55.962 92.704 55.962 92.704 55.047 91.203 C54.24 89.883 54.24 89.883 53.417 88.536 C52 86 52 86 50 81 C41.75 81 33.5 81 25 81 C25 93.21 25 105.42 25 118 C16.75 118 8.5 118 0 118 C0 79.06 0 40.12 0 0 Z " fill="#1B262A" transform="translate(428,644)"/>
<path d="M0 0 C8.25 0 16.5 0 25 0 C33.247 11.782 33.247 11.782 36.875 17.062 C37.54 18.03 37.54 18.03 38.219 19.017 C41.287 23.485 44.338 27.965 47.383 32.449 C47.953 33.289 47.953 33.289 48.535 34.146 C50.441 36.953 52.346 39.761 54.25 42.571 C54.951 43.604 55.652 44.638 56.375 45.703 C57.001 46.628 57.628 47.552 58.273 48.505 C59.38 50.104 60.528 51.675 61.727 53.206 C63 55 63 55 63 57 C63.66 57 64.32 57 65 57 C65.269 56.268 65.538 55.537 65.816 54.783 C66.97 52.071 68.276 49.891 69.949 47.473 C70.543 46.609 71.137 45.744 71.749 44.854 C72.388 43.933 73.028 43.012 73.688 42.062 C75.043 40.093 76.399 38.122 77.754 36.152 C78.453 35.14 79.152 34.128 79.872 33.085 C83.304 28.109 86.716 23.118 90.125 18.125 C90.739 17.229 91.354 16.333 91.987 15.41 C92.571 14.556 93.156 13.701 93.758 12.82 C94.265 12.081 94.771 11.341 95.293 10.579 C97.598 7.097 99.787 3.54 102 0 C110.25 0 118.5 0 127 0 C127 38.94 127 77.88 127 118 C118.75 118 110.5 118 102 118 C101.67 93.91 101.34 69.82 101 45 C93.08 56.88 93.08 56.88 85 69 C77.938 78.812 77.938 78.812 74.797 83.105 C71.297 87.926 68.087 92.904 65 98 C60.877 96.626 59.545 93.793 57.25 90.312 C56.267 88.851 55.284 87.391 54.301 85.93 C53.772 85.138 53.243 84.346 52.698 83.53 C50.279 79.926 47.825 76.347 45.372 72.765 C42.83 69.05 40.298 65.327 37.769 61.603 C36.632 59.931 35.495 58.259 34.356 56.588 C32.92 54.479 31.49 52.365 30.062 50.25 C29.643 49.636 29.224 49.023 28.793 48.39 C26 44.23 26 44.23 26 42 C25.34 42 24.68 42 24 42 C24.33 42.66 24.66 43.32 25 44 C25.092 46.338 25.117 48.68 25.114 51.02 C25.114 51.742 25.114 52.464 25.114 53.208 C25.113 55.6 25.105 57.991 25.098 60.383 C25.096 62.039 25.094 63.695 25.093 65.352 C25.09 69.715 25.08 74.078 25.069 78.441 C25.058 82.892 25.054 87.342 25.049 91.793 C25.038 100.529 25.021 109.264 25 118 C16.75 118 8.5 118 0 118 C0 79.06 0 40.12 0 0 Z " fill="#1B262A" transform="translate(140,644)"/>
<path d="M0 0 C7.92 0 15.84 0 24 0 C26.537 5.073 28.97 10.072 31.18 15.277 C31.469 15.954 31.759 16.63 32.057 17.327 C32.998 19.529 33.937 21.733 34.875 23.938 C35.536 25.485 36.198 27.033 36.859 28.581 C40.217 36.442 43.557 44.31 46.887 52.184 C47.354 53.288 47.354 53.288 47.831 54.414 C49.309 57.908 50.784 61.402 52.255 64.898 C55.207 71.897 58.28 78.824 61.489 85.709 C63.947 91.062 66.266 96.473 68.58 101.889 C69.393 103.792 70.21 105.693 71.027 107.594 C71.542 108.795 72.056 109.997 72.586 111.234 C73.05 112.319 73.515 113.405 73.994 114.522 C75 117 75 117 75 118 C65.76 118 56.52 118 47 118 C45.886 115.298 44.773 112.596 43.625 109.812 C43.278 108.971 42.931 108.129 42.573 107.261 C41.987 105.84 41.403 104.417 40.821 102.995 C40.152 101.37 39.465 99.752 38.773 98.137 C38 96 38 96 38 93 C20.51 93.33 3.02 93.66 -15 94 C-17.97 101.92 -20.94 109.84 -24 118 C-33.24 118 -42.48 118 -52 118 C-46.106 104.397 -40.169 90.814 -34.188 77.25 C-33.868 76.525 -33.548 75.799 -33.219 75.052 C-32.286 72.935 -31.352 70.819 -30.418 68.703 C-30.121 68.03 -29.823 67.357 -29.517 66.663 C-27.807 62.798 -26.066 58.949 -24.301 55.109 C-22.397 50.944 -20.66 46.735 -18.983 42.474 C-17.293 38.222 -15.491 34.018 -13.688 29.812 C-13.299 28.907 -12.911 28.002 -12.511 27.069 C-8.575 17.934 -4.449 8.898 0 0 Z " fill="#1A2629" transform="translate(598,644)"/>
<path d="M0 0 C8.25 0 16.5 0 25 0 C25.33 17.16 25.66 34.32 26 52 C38.281 39.763 38.281 39.763 50 27 C52.316 24.643 54.64 22.311 57 20 C61.332 15.718 65.569 11.429 69.473 6.746 C69.977 6.17 70.481 5.594 71 5 C71.707 4.149 72.413 3.298 73.141 2.421 C76.768 -0.651 78.573 -0.585 83.27 -0.488 C84.291 -0.478 84.291 -0.478 85.333 -0.467 C87.494 -0.439 89.652 -0.376 91.812 -0.312 C93.283 -0.287 94.754 -0.265 96.225 -0.244 C99.817 -0.189 103.408 -0.103 107 0 C105.29 3.664 103.24 5.935 100.312 8.75 C96.623 12.307 93.218 16.002 89.867 19.872 C86.687 23.497 83.373 26.995 80.062 30.5 C79.398 31.208 78.733 31.915 78.049 32.645 C74.029 36.909 69.933 41.046 65.662 45.061 C63.713 47.335 62.726 49.089 62 52 C62.742 54.198 62.742 54.198 64.297 56.188 C64.839 56.962 65.38 57.736 65.938 58.534 C66.536 59.348 67.134 60.162 67.75 61 C68.351 61.847 68.952 62.693 69.572 63.565 C73.782 69.455 78.153 75.215 82.617 80.914 C85.958 85.241 89.108 89.692 92.266 94.152 C96.063 99.514 99.933 104.823 103.798 110.135 C104.33 110.869 104.862 111.603 105.41 112.359 C105.886 113.014 106.362 113.668 106.852 114.343 C108 116 108 116 109 118 C83.748 120.831 83.748 120.831 76.497 116.507 C72.399 112.502 69.852 107.6 67.317 102.51 C65.202 98.479 62.504 94.91 59.812 91.25 C58.829 89.862 57.848 88.471 56.871 87.078 C56.397 86.405 55.922 85.731 55.433 85.037 C54.467 83.664 53.503 82.291 52.54 80.916 C51.155 78.941 49.766 76.97 48.375 75 C47.754 74.109 47.754 74.109 47.12 73.2 C45.013 70.107 45.013 70.107 42 68 C41.723 68.828 41.723 68.828 41.441 69.672 C40 72 40 72 36.777 74.328 C30.955 78.592 26.703 82.461 25.248 89.786 C24.213 99.143 24.606 108.617 25 118 C16.75 118 8.5 118 0 118 C0 79.06 0 40.12 0 0 Z " fill="#1A2529" transform="translate(298,644)"/>
<path d="M0 0 C27.72 0 55.44 0 84 0 C84 6.93 84 13.86 84 21 C64.86 21 45.72 21 26 21 C26 30.57 26 40.14 26 50 C43.16 50 60.32 50 78 50 C78 56.6 78 63.2 78 70 C60.84 70 43.68 70 26 70 C26 85.84 26 101.68 26 118 C17.42 118 8.84 118 0 118 C0 79.06 0 40.12 0 0 Z " fill="#1C282C" transform="translate(693,644)"/>
<path d="M0 0 C0.66 0 1.32 0 2 0 C2 51.81 2 103.62 2 157 C-1.338 155.331 -2.87 154.375 -5.36 151.851 C-5.994 151.214 -6.628 150.577 -7.281 149.92 C-7.954 149.234 -8.627 148.547 -9.32 147.84 C-10.02 147.135 -10.72 146.43 -11.441 145.703 C-13.674 143.453 -15.9 141.196 -18.125 138.938 C-20.358 136.677 -22.593 134.417 -24.83 132.161 C-26.222 130.757 -27.611 129.35 -28.997 127.941 C-29.625 127.307 -30.252 126.673 -30.899 126.019 C-31.451 125.459 -32.003 124.899 -32.572 124.322 C-33.983 122.892 -33.983 122.892 -36 122 C-36.609 111.239 -37.068 100.483 -37.347 89.708 C-37.481 84.701 -37.663 79.705 -37.961 74.705 C-40.025 39.264 -40.025 39.264 -30.343 27.62 C-24.297 20.871 -17.26 15.367 -10 10 C-6.217 6.924 -2.887 3.951 0 0 Z " fill="#CFA25C" transform="translate(605,356)"/>
<path d="M0 0 C2.31 1.98 4.62 3.96 7 6 C8.838 7.087 10.677 8.174 12.544 9.21 C23.804 15.735 33.596 24.501 38 37 C41.188 51.417 40.413 66.716 40.062 81.375 C40.045 82.359 40.027 83.343 40.009 84.357 C39.904 90.136 39.722 95.904 39.424 101.676 C39.332 103.472 39.253 105.269 39.186 107.066 C38.607 120.838 38.607 120.838 34.749 126.027 C32.271 128.271 29.767 130.134 27 132 C25.792 133.13 24.606 134.283 23.461 135.477 C22.691 136.26 22.691 136.26 21.905 137.059 C21.4 137.576 20.895 138.093 20.375 138.625 C13.941 145.125 7.639 150.907 0 156 C0 104.52 0 53.04 0 0 Z " fill="#CFA15A" transform="translate(418,356)"/>
<path d="M0 0 C31.68 0 63.36 0 96 0 C96 7.26 96 14.52 96 22 C84.78 22 73.56 22 62 22 C62 53.68 62 85.36 62 118 C53.75 118 45.5 118 37 118 C37 85.99 37 53.98 37 21 C24.79 21 12.58 21 0 21 C0 14.07 0 7.14 0 0 Z " fill="#1B262A" transform="translate(794,644)"/>
<path d="M0 0 C6.216 4.164 10.84 10.372 12.445 17.738 C13.591 27.448 13.786 35.67 7.809 43.816 C0.898 51.515 -6.278 55.146 -16.551 55.871 C-27.178 55.651 -34.284 50.724 -41.566 43.441 C-46.488 35.492 -47.31 27.034 -46.191 17.816 C-43.265 8.738 -37.17 2.729 -29.191 -2.184 C-20.046 -6.548 -8.666 -4.681 0 0 Z " fill="#FDFCFC" transform="translate(642.19140625,807.18359375)"/>
<path d="M0 0 C0 102.96 0 205.92 0 312 C-13.2 312 -26.4 312 -40 312 C-40 238.74 -40 165.48 -40 90 C-39.67 90 -39.34 90 -39 90 C-39 162.6 -39 235.2 -39 310 C-27.12 310 -15.24 310 -3 310 C-3 209.02 -3 108.04 -3 4 C-4.65 4.99 -6.3 5.98 -8 7 C-8 6.34 -8 5.68 -8 5 C-2.524 0 -2.524 0 0 0 Z M-10 7 C-9.34 7.33 -8.68 7.66 -8 8 C-9.98 9.98 -11.96 11.96 -14 14 C-14.66 13.67 -15.32 13.34 -16 13 C-14.02 11.02 -12.04 9.04 -10 7 Z M-18 14 C-17.34 14.33 -16.68 14.66 -16 15 C-19.3 18.3 -22.6 21.6 -26 25 C-26.66 24.67 -27.32 24.34 -28 24 C-24.7 20.7 -21.4 17.4 -18 14 Z M-30 25 C-29.34 25.33 -28.68 25.66 -28 26 C-29.98 27.98 -31.96 29.96 -34 32 C-34.66 31.67 -35.32 31.34 -36 31 C-34.02 29.02 -32.04 27.04 -30 25 Z M-286 35 C-284.02 36.65 -282.04 38.3 -280 40 C-283 40 -283 40 -284.688 38.625 C-286 37 -286 37 -286 35 Z M-40 35 C-39.67 35.66 -39.34 36.32 -39 37 C-39.66 36.67 -40.32 36.34 -41 36 C-40.67 35.67 -40.34 35.34 -40 35 Z M-42 37 C-41.67 37.66 -41.34 38.32 -41 39 C-41.66 38.67 -42.32 38.34 -43 38 C-42.67 37.67 -42.34 37.34 -42 37 Z M-280 41 C-279.01 41.99 -278.02 42.98 -277 44 C-277.99 43.67 -278.98 43.34 -280 43 C-280 42.34 -280 41.68 -280 41 Z M-49 43 C-48.34 43.33 -47.68 43.66 -47 44 C-49.97 46.97 -52.94 49.94 -56 53 C-56.66 52.67 -57.32 52.34 -58 52 C-55.03 49.03 -52.06 46.06 -49 43 Z M-275 46 C-274.01 46.99 -273.02 47.98 -272 49 C-272.99 48.67 -273.98 48.34 -275 48 C-275 47.34 -275 46.68 -275 46 Z M-60 54 C-59.67 54.66 -59.34 55.32 -59 56 C-59.66 55.67 -60.32 55.34 -61 55 C-60.67 54.67 -60.34 54.34 -60 54 Z M-266 55 C-261.926 56.61 -259.235 59.538 -256.25 62.625 C-255.743 63.141 -255.237 63.656 -254.715 64.188 C-253.472 65.454 -252.235 66.726 -251 68 C-254 68 -254 68 -256.918 65.41 C-258.016 64.302 -259.105 63.186 -260.188 62.062 C-260.746 61.499 -261.305 60.935 -261.881 60.354 C-266 56.154 -266 56.154 -266 55 Z M-65 59 C-64.67 59.66 -64.34 60.32 -64 61 C-64.66 60.67 -65.32 60.34 -66 60 C-65.67 59.67 -65.34 59.34 -65 59 Z M-68 62 C-68 62.99 -68 63.98 -68 65 C-68.66 64.67 -69.32 64.34 -70 64 C-69.34 63.34 -68.68 62.68 -68 62 Z M-72 65 C-71.01 65.495 -71.01 65.495 -70 66 C-70.99 66.495 -70.99 66.495 -72 67 C-72 66.34 -72 65.68 -72 65 Z M-74 67 C-73.34 67.33 -72.68 67.66 -72 68 C-78.6 74.6 -85.2 81.2 -92 88 C-92.66 87.67 -93.32 87.34 -94 87 C-87.4 80.4 -80.8 73.8 -74 67 Z M-250 70 C-249.01 70.99 -248.02 71.98 -247 73 C-247.99 72.67 -248.98 72.34 -250 72 C-250 71.34 -250 70.68 -250 70 Z M-247 73 C-246.34 73.66 -245.68 74.32 -245 75 C-245.66 75 -246.32 75 -247 75 C-247 74.34 -247 73.68 -247 73 Z M-243 77 C-240.69 78.65 -238.38 80.3 -236 82 C-236.33 82.66 -236.66 83.32 -237 84 C-239.041 82.384 -241.041 80.714 -243 79 C-243 78.34 -243 77.68 -243 77 Z M-232 88 C-228.125 89.75 -228.125 89.75 -227 92 C-230.875 90.25 -230.875 90.25 -232 88 Z M-42 89 C-41.34 89.33 -40.68 89.66 -40 90 C-42.31 92.31 -44.62 94.62 -47 97 C-47.66 96.67 -48.32 96.34 -49 96 C-46.69 93.69 -44.38 91.38 -42 89 Z M-283 91 C-281.68 92.32 -280.36 93.64 -279 95 C-280.32 94.34 -281.64 93.68 -283 93 C-283 92.34 -283 91.68 -283 91 Z M-227 92 C-226.34 92.66 -225.68 93.32 -225 94 C-225.66 94 -226.32 94 -227 94 C-227 93.34 -227 92.68 -227 92 Z M-100 92 C-99.34 92.33 -98.68 92.66 -98 93 C-99.485 93.99 -99.485 93.99 -101 95 C-100.67 94.01 -100.34 93.02 -100 92 Z M-225 94 C-217.517 100.15 -217.517 100.15 -215 104 C-219.136 102.409 -222.232 99.395 -225 96 C-225 95.34 -225 94.68 -225 94 Z M-276 98 C-274.02 98.99 -274.02 98.99 -272 100 C-272.33 100.66 -272.66 101.32 -273 102 C-273.99 100.68 -274.98 99.36 -276 98 Z M-106 98 C-105.34 98.33 -104.68 98.66 -104 99 C-105.32 99.99 -106.64 100.98 -108 102 C-107.34 100.68 -106.68 99.36 -106 98 Z M-51 98 C-50.67 98.66 -50.34 99.32 -50 100 C-52.64 102.31 -55.28 104.62 -58 107 C-58.66 106.67 -59.32 106.34 -60 106 C-58.878 104.851 -57.752 103.706 -56.625 102.562 C-55.999 101.924 -55.372 101.286 -54.727 100.629 C-53 99 -53 99 -51 98 Z M-272 102 C-270.02 102.99 -270.02 102.99 -268 104 C-268.99 104 -269.98 104 -271 104 C-271.33 103.34 -271.66 102.68 -272 102 Z M-110 102 C-109.34 102.33 -108.68 102.66 -108 103 C-109.98 104.98 -111.96 106.96 -114 109 C-114.66 108.67 -115.32 108.34 -116 108 C-114.02 106.02 -112.04 104.04 -110 102 Z M-265 108 C-263.35 109.65 -261.7 111.3 -260 113 C-261.938 112.188 -261.938 112.188 -264 111 C-264.33 110.01 -264.66 109.02 -265 108 Z M-209 110 C-205.432 111.514 -203.163 113.605 -200.453 116.352 C-199.609 117.202 -198.764 118.053 -197.895 118.93 C-197.022 119.819 -196.149 120.709 -195.25 121.625 C-194.362 122.522 -193.474 123.419 -192.559 124.344 C-190.368 126.558 -188.182 128.777 -186 131 C-189 131 -189 131 -191.177 129.18 C-191.999 128.348 -192.821 127.517 -193.668 126.66 C-194.561 125.762 -195.453 124.864 -196.373 123.939 C-196.834 123.468 -197.296 122.996 -197.771 122.51 C-199.185 121.065 -200.61 119.63 -202.037 118.197 C-209 111.154 -209 111.154 -209 110 Z M-118 110 C-118 110.99 -118 111.98 -118 113 C-118.66 112.67 -119.32 112.34 -120 112 C-119.34 111.34 -118.68 110.68 -118 110 Z M-64 110 C-64 110.99 -64 111.98 -64 113 C-64.66 112.67 -65.32 112.34 -66 112 C-65.34 111.34 -64.68 110.68 -64 110 Z M-121 113 C-121 113.99 -121 114.98 -121 116 C-121.66 115.67 -122.32 115.34 -123 115 C-122.34 114.34 -121.68 113.68 -121 113 Z M-124 116 C-124 116.99 -124 117.98 -124 119 C-124.99 119 -125.98 119 -127 119 C-126.01 118.01 -125.02 117.02 -124 116 Z M-256 117 C-253.068 118.321 -251.013 119.746 -248.766 122.039 C-247.905 122.909 -247.905 122.909 -247.027 123.797 C-246.441 124.4 -245.854 125.003 -245.25 125.625 C-244.648 126.236 -244.046 126.847 -243.426 127.477 C-241.946 128.98 -240.472 130.489 -239 132 C-242 132 -242 132 -243.626 130.731 C-244.197 130.151 -244.767 129.57 -245.355 128.973 C-245.977 128.346 -246.599 127.718 -247.24 127.072 C-247.883 126.409 -248.525 125.746 -249.188 125.062 C-250.169 124.073 -250.169 124.073 -251.17 123.064 C-256 118.154 -256 118.154 -256 117 Z M-73 118 C-72.34 118.33 -71.68 118.66 -71 119 C-72.98 119.99 -72.98 119.99 -75 121 C-74.34 120.01 -73.68 119.02 -73 118 Z M-137 128 C-136.01 128.495 -136.01 128.495 -135 129 C-135.99 129.495 -135.99 129.495 -137 130 C-137 129.34 -137 128.68 -137 128 Z M-140 131 C-139.34 131.33 -138.68 131.66 -138 132 C-141.63 135.63 -145.26 139.26 -149 143 C-149.66 142.67 -150.32 142.34 -151 142 C-147.37 138.37 -143.74 134.74 -140 131 Z M-239 133 C-236.69 134.98 -234.38 136.96 -232 139 C-235 139 -235 139 -237.188 137.125 C-239 135 -239 135 -239 133 Z M-90 135 C-90 135.99 -90 136.98 -90 138 C-90.99 138 -91.98 138 -93 138 C-92.01 137.01 -91.02 136.02 -90 135 Z M-181 137 C-180.34 137.66 -179.68 138.32 -179 139 C-179.66 139 -180.32 139 -181 139 C-181 138.34 -181 137.68 -181 137 Z M-179 139 C-178.34 139 -177.68 139 -177 139 C-177.33 139.66 -177.66 140.32 -178 141 C-178.33 140.34 -178.66 139.68 -179 139 Z M-95 139 C-94.34 139.33 -93.68 139.66 -93 140 C-94.65 141.32 -96.3 142.64 -98 144 C-96.125 140.125 -96.125 140.125 -95 139 Z M-232 140 C-228.319 141.536 -226.012 143.782 -223.25 146.625 C-222.451 147.442 -221.652 148.26 -220.828 149.102 C-219.923 150.041 -219.923 150.041 -219 151 C-222 151 -222 151 -224.48 148.848 C-225.374 147.929 -226.267 147.009 -227.188 146.062 C-228.089 145.146 -228.99 144.229 -229.918 143.285 C-232 141 -232 141 -232 140 Z M-153 143 C-152.01 143.495 -152.01 143.495 -151 144 C-151.99 144.495 -151.99 144.495 -153 145 C-153 144.34 -153 143.68 -153 143 Z M-174 144 C-173.01 144.33 -172.02 144.66 -171 145 C-171.33 145.66 -171.66 146.32 -172 147 C-172.66 146.01 -173.32 145.02 -174 144 Z M-157 147 C-156.01 147.495 -156.01 147.495 -155 148 C-155.99 148.495 -155.99 148.495 -157 149 C-157 148.34 -157 147.68 -157 147 Z M-104 148 C-103.34 148.33 -102.68 148.66 -102 149 C-104.31 151.31 -106.62 153.62 -109 156 C-109.66 155.67 -110.32 155.34 -111 155 C-108.69 152.69 -106.38 150.38 -104 148 Z M-159 149 C-158.01 149.495 -158.01 149.495 -157 150 C-157.99 150.495 -157.99 150.495 -159 151 C-159 150.34 -159 149.68 -159 149 Z M-168 150 C-166.02 150.99 -166.02 150.99 -164 152 C-164.99 152 -165.98 152 -167 152 C-167.33 151.34 -167.66 150.68 -168 150 Z M-164 153 C-163.01 153.33 -162.02 153.66 -161 154 C-161.99 154 -162.98 154 -164 154 C-164 153.67 -164 153.34 -164 153 Z M-215 156 C-213.02 157.65 -211.04 159.3 -209 161 C-212 161 -212 161 -213.688 159.625 C-215 158 -215 158 -215 156 Z M-115 158 C-114.34 158.33 -113.68 158.66 -113 159 C-115.97 161.97 -118.94 164.94 -122 168 C-122.66 167.67 -123.32 167.34 -124 167 C-121.03 164.03 -118.06 161.06 -115 158 Z M-209 162 C-205.848 163.393 -203.738 165.025 -201.328 167.477 C-200.664 168.147 -200 168.817 -199.316 169.508 C-198.634 170.206 -197.953 170.905 -197.25 171.625 C-196.553 172.331 -195.855 173.038 -195.137 173.766 C-193.42 175.506 -191.708 177.251 -190 179 C-193 179 -193 179 -194.809 177.547 C-195.464 176.883 -196.119 176.219 -196.793 175.535 C-197.861 174.459 -197.861 174.459 -198.951 173.361 C-199.689 172.603 -200.427 171.844 -201.188 171.062 C-201.937 170.308 -202.687 169.553 -203.459 168.775 C-209 163.154 -209 163.154 -209 162 Z M-125 168 C-125 168.99 -125 169.98 -125 171 C-125.66 170.67 -126.32 170.34 -127 170 C-126.34 169.34 -125.68 168.68 -125 168 Z M-132 175 C-132 178 -132 178 -134.625 180.699 C-135.743 181.704 -136.868 182.699 -138 183.688 C-138.572 184.199 -139.145 184.71 -139.734 185.236 C-141.15 186.498 -142.574 187.75 -144 189 C-144.66 188.67 -145.32 188.34 -146 188 C-141.526 183.404 -136.919 179.116 -132 175 Z M-185 185 C-182.068 186.321 -180.013 187.746 -177.766 190.039 C-176.905 190.909 -176.905 190.909 -176.027 191.797 C-175.441 192.4 -174.854 193.003 -174.25 193.625 C-173.648 194.236 -173.046 194.847 -172.426 195.477 C-170.946 196.98 -169.472 198.489 -168 200 C-171 200 -171 200 -172.626 198.731 C-173.197 198.151 -173.767 197.57 -174.355 196.973 C-174.977 196.346 -175.599 195.718 -176.24 195.072 C-176.883 194.409 -177.525 193.746 -178.188 193.062 C-179.169 192.073 -179.169 192.073 -180.17 191.064 C-185 186.154 -185 186.154 -185 185 Z M-151 192 C-150.34 192.33 -149.68 192.66 -149 193 C-150.32 193.99 -151.64 194.98 -153 196 C-152.34 194.68 -151.68 193.36 -151 192 Z M-155 196 C-154.34 196.33 -153.68 196.66 -153 197 C-155.97 199.97 -158.94 202.94 -162 206 C-166 204 -166 204 -167 202 C-166.319 202.309 -165.639 202.619 -164.938 202.938 C-161.983 203.312 -161.983 203.312 -160.109 201.508 C-158.343 199.72 -156.645 197.901 -155 196 Z " fill="#090F10" transform="translate(675,203)"/>
<path d="M0 0 C31.113 0 31.113 0 37.594 6.297 C40.692 10.049 41.854 13.661 42.375 18.438 C41.71 24.756 40.321 29.185 35.438 33.438 C33.646 34.852 32.043 35.979 30 37 C31.6 39.752 33.206 42.501 34.812 45.25 C35.264 46.027 35.716 46.805 36.182 47.605 C36.623 48.36 37.065 49.114 37.52 49.891 C38.124 50.928 38.124 50.928 38.741 51.985 C39.996 54.069 39.996 54.069 41.655 56.132 C43 58 43 58 43 60 C39.883 60.473 37.102 60.633 34 60 C31.508 57.833 30.145 55.214 28.625 52.312 C28.214 51.591 27.803 50.87 27.379 50.127 C26.584 48.728 25.804 47.321 25.04 45.905 C24.15 44.275 23.187 42.685 22.211 41.105 C21 39 21 39 21 37 C16.38 37 11.76 37 7 37 C7 44.26 7 51.52 7 59 C4.69 59 2.38 59 0 59 C0 39.53 0 20.06 0 0 Z " fill="#161F23" transform="translate(486,803)"/>
<path d="M0 0 C31.212 0 31.212 0 37.59 6.242 C41.288 10.852 42.28 15.274 41.938 21.125 C41.178 26.348 39.53 30.054 35.237 33.356 C34.615 33.789 33.993 34.222 33.352 34.668 C32.723 35.108 32.095 35.548 31.448 36.001 C30.97 36.33 30.492 36.66 30 37 C30.358 37.59 30.717 38.18 31.086 38.788 C32.706 41.461 34.322 44.137 35.938 46.812 C36.501 47.741 37.065 48.67 37.646 49.627 C38.454 50.966 38.454 50.966 39.277 52.332 C39.775 53.154 40.272 53.976 40.785 54.823 C42 57 42 57 43 60 C39.804 60.678 37.178 60.84 34 60 C30.927 56.966 29.004 53.391 26.938 49.625 C26.358 48.64 25.779 47.655 25.182 46.641 C21 39.433 21 39.433 21 37 C16.38 37 11.76 37 7 37 C7 44.26 7 51.52 7 59 C4.69 59 2.38 59 0 59 C0 39.53 0 20.06 0 0 Z " fill="#172124" transform="translate(686,803)"/>
<path d="M0 0 C5.28 -0.062 10.56 -0.124 16 -0.188 C17.65 -0.215 19.3 -0.242 21 -0.27 C37.181 -0.429 37.181 -0.429 42.5 4.346 C45.775 7.986 47.806 11.727 48.223 16.613 C47.848 22.936 46.521 26.63 42.277 31.344 C34.096 37.293 25.162 36.353 15.5 36.188 C10.385 36.126 5.27 36.064 0 36 C0 24.12 0 12.24 0 0 Z " fill="#FDFDFD" transform="translate(453,666)"/>
<path d="M0 0 C6.216 4.164 10.84 10.372 12.445 17.738 C13.591 27.448 13.786 35.67 7.809 43.816 C0.898 51.515 -6.278 55.146 -16.551 55.871 C-27.178 55.651 -34.284 50.724 -41.566 43.441 C-46.488 35.492 -47.31 27.034 -46.191 17.816 C-43.265 8.738 -37.17 2.729 -29.191 -2.184 C-20.046 -6.548 -8.666 -4.681 0 0 Z M-33.004 9.691 C-38.42 17.429 -39.404 23.79 -37.793 33.125 C-35.794 39.784 -30.587 43.761 -24.816 47.254 C-17.777 48.762 -11.534 48.407 -5.191 44.816 C-0.511 41.693 2.704 38.542 4.371 33.082 C5.92 25.059 5.384 17.733 0.809 10.816 C-3.732 5.579 -8.431 3.367 -15.352 2.566 C-22.476 2.175 -28.235 4.282 -33.004 9.691 Z " fill="#182225" transform="translate(642.19140625,807.18359375)"/>
<path d="M0 0 C6 0 6 0 8.168 2.133 C8.834 3.12 9.501 4.108 10.188 5.125 C10.961 6.235 11.738 7.343 12.516 8.449 C12.918 9.032 13.321 9.615 13.736 10.216 C15.858 13.211 18.151 16.067 20.438 18.938 C24.945 24.64 29.39 30.388 33.809 36.16 C35.843 38.796 37.92 41.4 40 44 C40.33 29.48 40.66 14.96 41 0 C43.31 0 45.62 0 48 0 C48 19.8 48 39.6 48 60 C42 60 42 60 40.129 58.348 C39.612 57.594 39.095 56.839 38.562 56.062 C37.985 55.248 37.408 54.433 36.812 53.594 C36.214 52.738 35.616 51.882 35 51 C33.695 49.348 32.383 47.702 31.062 46.062 C28 42.246 28 42.246 28 40 C27.34 40 26.68 40 26 40 C20 32 14 24 8 16 C7.67 30.52 7.34 45.04 7 60 C4.69 60 2.38 60 0 60 C0 40.2 0 20.4 0 0 Z " fill="#172024" transform="translate(268,803)"/>
<path d="M0 0 C12.54 0 25.08 0 38 0 C38 2.64 38 5.28 38 8 C27.77 7.67 17.54 7.34 7 7 C7 13.27 7 19.54 7 26 C16.24 26 25.48 26 35 26 C35 27.98 35 29.96 35 32 C26.09 32 17.18 32 8 32 C8 38.6 8 45.2 8 52 C17.9 52 27.8 52 38 52 C38 54.64 38 57.28 38 60 C25.46 60 12.92 60 0 60 C0 40.2 0 20.4 0 0 Z " fill="#192225" transform="translate(416,803)"/>
<path d="M0 0 C-0.812 2.438 -0.812 2.438 -2 5 C-5 6 -5 6 -8.5 4.562 C-13.609 2.532 -18.571 2.101 -24 3 C-27.663 5.442 -28.728 6.79 -29.688 11.062 C-28.88 14.513 -27.764 15.23 -24.839 17.061 C-20.921 19.062 -16.614 19.932 -12.365 20.979 C-6.451 22.557 -1.163 24.869 2.414 30.047 C3.952 35.173 3.609 40.317 1.562 45.25 C-1.041 49.908 -5.142 52.091 -10 54 C-17.885 55.911 -26.074 55.691 -33.281 51.754 C-35.223 50.547 -37.124 49.307 -39 48 C-37.552 44.259 -37.552 44.259 -35.145 43.129 C-32.434 42.966 -31.077 43.677 -28.688 44.938 C-22.836 47.687 -18.403 47.546 -12.25 45.75 C-9.655 44.793 -8.026 44.022 -5.875 42.25 C-4.53 38.791 -4.975 36.523 -6 33 C-9.829 30.098 -13.815 29.117 -18.438 28 C-25.104 26.386 -31.704 24.695 -36.074 19 C-38.152 14.511 -37.889 9.77 -37 5 C-34.879 0.603 -31.668 -1.98 -27.25 -3.938 C-18.117 -6.733 -7.938 -5.292 0 0 Z " fill="#162023" transform="translate(794,808)"/>
<path d="M0 0 C2 2 2 2 2.248 4.236 C2.248 5.177 2.247 6.118 2.246 7.087 C2.25 8.171 2.254 9.255 2.258 10.372 C2.249 12.172 2.249 12.172 2.241 14.009 C2.242 15.277 2.244 16.545 2.246 17.851 C2.25 21.381 2.242 24.91 2.232 28.44 C2.224 32.243 2.226 36.045 2.228 39.847 C2.229 46.439 2.223 53.031 2.211 59.622 C2.195 69.153 2.19 78.683 2.187 88.213 C2.183 103.675 2.17 119.136 2.151 134.597 C2.133 149.619 2.118 164.641 2.11 179.664 C2.109 180.589 2.109 181.514 2.108 182.468 C2.106 187.11 2.103 191.753 2.101 196.396 C2.08 234.93 2.044 273.465 2 312 C13.88 312 25.76 312 38 312 C38 239.73 38 167.46 38 93 C38.66 93 39.32 93 40 93 C40 165.93 40 238.86 40 314 C26.8 314 13.6 314 0 314 C0 210.38 0 106.76 0 0 Z " fill="#020607" transform="translate(350,201)"/>
<path d="M0 0 C0.66 0 1.32 0 2 0 C8.357 14.212 14.493 28.436 20 43 C7.79 43 -4.42 43 -17 43 C-15.114 37.343 -13.228 31.901 -10.898 26.445 C-10.476 25.443 -10.476 25.443 -10.044 24.42 C-9.158 22.321 -8.267 20.223 -7.375 18.125 C-6.477 16.006 -5.58 13.886 -4.684 11.765 C-4.131 10.455 -3.575 9.145 -3.018 7.835 C-1.92 5.242 -0.891 2.674 0 0 Z " fill="#FBFBFB" transform="translate(608,674)"/>
<path d="M0 0 C9.24 0 18.48 0 28 0 C28 8.91 28 17.82 28 27 C18.76 27 9.52 27 0 27 C0 18.09 0 9.18 0 0 Z " fill="#CEA059" transform="translate(480,204)"/>
<path d="M0 0 C14.85 0 29.7 0 45 0 C45 2.31 45 4.62 45 7 C38.73 7 32.46 7 26 7 C26 24.49 26 41.98 26 60 C23.36 60 20.72 60 18 60 C18 42.51 18 25.02 18 7 C12.06 7.33 6.12 7.66 0 8 C0 5.36 0 2.72 0 0 Z " fill="#141C1F" transform="translate(344,803)"/>
<path d="M0 0 C8.91 0 17.82 0 27 0 C27 8.91 27 17.82 27 27 C18.09 27 9.18 27 0 27 C0 18.09 0 9.18 0 0 Z " fill="#CE9F56" transform="translate(516,204)"/>
<path d="M0 0 C9.24 0 18.48 0 28 0 C28 8.58 28 17.16 28 26 C18.76 26 9.52 26 0 26 C0 17.42 0 8.84 0 0 Z " fill="#CFA15A" transform="translate(480,239)"/>
<path d="M0 0 C8.91 0 17.82 0 27 0 C27 8.58 27 17.16 27 26 C18.09 26 9.18 26 0 26 C0 17.42 0 8.84 0 0 Z " fill="#CE9F57" transform="translate(516,239)"/>
<path d="M0 0 C27.72 0 55.44 0 84 0 C84 6.93 84 13.86 84 21 C64.86 21 45.72 21 26 21 C26 30.57 26 40.14 26 50 C43.16 50 60.32 50 78 50 C78 56.6 78 63.2 78 70 C60.84 70 43.68 70 26 70 C26 85.84 26 101.68 26 118 C17.42 118 8.84 118 0 118 C0 79.06 0 40.12 0 0 Z M1 2 C1 39.95 1 77.9 1 117 C8.92 117 16.84 117 25 117 C25 101.16 25 85.32 25 69 C42.16 69 59.32 69 77 69 C77 63.06 77 57.12 77 51 C59.84 51 42.68 51 25 51 C25.33 41.1 25.66 31.2 26 21 C44.48 20.67 62.96 20.34 82 20 C82 14.06 82 8.12 82 2 C55.27 2 28.54 2 1 2 Z " fill="#0D1213" transform="translate(693,644)"/>
<path d="M0 0 C2.846 -0.062 5.692 -0.124 8.625 -0.188 C9.51 -0.215 10.395 -0.242 11.307 -0.27 C16.297 -0.322 19.68 0.227 24 3 C26.926 6.413 27.538 9.51 27.352 14.004 C26.754 17.397 25.245 19.452 23 22 C18.405 24.576 13.795 24.229 8.688 24.125 C5.821 24.084 2.954 24.043 0 24 C0 16.08 0 8.16 0 0 Z " fill="#F7F7F7" transform="translate(493,810)"/>
<path d="M0 0 C2.522 -0.082 5.04 -0.141 7.562 -0.188 C8.267 -0.213 8.971 -0.238 9.697 -0.264 C15.544 -0.345 20.189 0.752 24.875 4.5 C27.532 8.043 27.359 11.762 27 16 C24.876 20.02 23.217 22.322 19 24 C16.909 24.243 16.909 24.243 14.707 24.23 C13.912 24.229 13.118 24.227 12.299 24.225 C11.068 24.206 11.068 24.206 9.812 24.188 C8.564 24.187 8.564 24.187 7.291 24.186 C1.14 24.14 1.14 24.14 0 23 C-0.087 21.292 -0.107 19.581 -0.098 17.871 C-0.094 16.837 -0.091 15.802 -0.088 14.736 C-0.08 13.648 -0.071 12.559 -0.062 11.438 C-0.058 10.345 -0.053 9.253 -0.049 8.127 C-0.037 5.418 -0.021 2.709 0 0 Z " fill="#F6F7F7" transform="translate(693,810)"/>
<path d="M0 0 C2.64 0 5.28 0 8 0 C8 19.8 8 39.6 8 60 C5.36 60 2.72 60 0 60 C0 40.2 0 20.4 0 0 Z " fill="#1C282C" transform="translate(227,803)"/>
<path d="M0 0 C2.64 0 5.28 0 8 0 C8 19.8 8 39.6 8 60 C5.36 60 2.72 60 0 60 C0 40.2 0 20.4 0 0 Z " fill="#172124" transform="translate(559,803)"/>
<path d="M0 0 C0.66 0 1.32 0 2 0 C2 51.81 2 103.62 2 157 C-1.494 155.253 -3.139 154.086 -5.75 151.375 C-6.364 150.743 -6.977 150.112 -7.609 149.461 C-8.068 148.979 -8.527 148.497 -9 148 C-8.505 147.01 -8.505 147.01 -8 146 C-4.535 149.465 -4.535 149.465 -1 153 C-1.001 152.218 -1.002 151.435 -1.003 150.629 C-1.025 131.618 -1.041 112.608 -1.052 93.597 C-1.057 84.403 -1.064 75.21 -1.075 66.017 C-1.085 58.007 -1.092 49.997 -1.094 41.987 C-1.095 37.743 -1.098 33.499 -1.106 29.256 C-1.112 25.266 -1.115 21.276 -1.113 17.286 C-1.113 15.818 -1.115 14.349 -1.119 12.88 C-1.124 10.884 -1.122 8.887 -1.12 6.891 C-1.121 5.771 -1.122 4.651 -1.123 3.497 C-1 1 -1 1 0 0 Z " fill="#D0A35D" transform="translate(605,356)"/>
<path d="M0 0 C2.64 0 5.28 0 8 0 C8 19.8 8 39.6 8 60 C5.36 60 2.72 60 0 60 C0 40.2 0 20.4 0 0 Z M1 2 C1 20.48 1 38.96 1 58 C2.98 58 4.96 58 7 58 C6.67 39.52 6.34 21.04 6 2 C4.35 2 2.7 2 1 2 Z " fill="#060A0B" transform="translate(227,803)"/>
<path d="M0 0 C0 16.5 0 33 0 50 C1.65 50 3.3 50 5 50 C5 50.99 5 51.98 5 53 C2.36 53 -0.28 53 -3 53 C-3 35.84 -3 18.68 -3 1 C-1 0 -1 0 0 0 Z " fill="#394246" transform="translate(365,810)"/>
<path d="M0 0 C9.9 0 19.8 0 30 0 C27.99 4.02 26.062 6.145 22.875 9.25 C21.965 10.142 21.055 11.034 20.117 11.953 C19.419 12.629 18.72 13.304 18 14 C18 11 18 11 24 4 C15.75 3.67 7.5 3.34 -1 3 C-0.67 2.01 -0.34 1.02 0 0 Z M16 14 C16.33 14.66 16.66 15.32 17 16 C16.34 15.67 15.68 15.34 15 15 C15.33 14.67 15.66 14.34 16 14 Z M12 18 C12 18.99 12 19.98 12 21 C11.34 20.67 10.68 20.34 10 20 C10.66 19.34 11.32 18.68 12 18 Z " fill="#252D30" transform="translate(375,644)"/>
<path d="M0 0 C1.438 2.125 1.438 2.125 2 4 C0.68 4.99 -0.64 5.98 -2 7 C-2.742 6.361 -3.485 5.721 -4.25 5.062 C-6.711 3.217 -8.035 2.439 -11 2 C-10.67 1.01 -10.34 0.02 -10 -1 C-5.984 -2.339 -3.904 -1.49 0 0 Z M-10 4 C-8 5 -8 5 -8 5 Z " fill="#1C272A" transform="translate(791,806)"/>
<path d="M0 0 C2.948 2.744 5.228 5.362 7 9 C6.67 9.99 6.34 10.98 6 12 C4.995 10.378 3.996 8.753 3 7.125 C2.443 6.22 1.886 5.315 1.312 4.383 C0 2 0 2 0 0 Z M7 12 C7.99 12.495 7.99 12.495 9 13 C8.67 13.66 8.34 14.32 8 15 C7.67 14.01 7.34 13.02 7 12 Z M9 15 C9.99 15.495 9.99 15.495 11 16 C10.67 16.66 10.34 17.32 10 18 C9.67 17.01 9.34 16.02 9 15 Z M3 18 C3.66 18 4.32 18 5 18 C5.33 19.32 5.66 20.64 6 22 C8.64 21.67 11.28 21.34 14 21 C14.33 21.99 14.66 22.98 15 24 C12.03 24 9.06 24 6 24 C5.01 22.02 4.02 20.04 3 18 Z M11 18 C11.99 18.495 11.99 18.495 13 19 C12.67 19.66 12.34 20.32 12 21 C11.67 20.01 11.34 19.02 11 18 Z " fill="#13191A" transform="translate(714,839)"/>
<path d="M0 0 C0.33 0 0.66 0 1 0 C1.125 6.75 1.125 6.75 0 9 C-0.66 9 -1.32 9 -2 9 C-1.34 6.03 -0.68 3.06 0 0 Z " fill="#262D2F" transform="translate(527,818)"/>
<path d="M0 0 C0.33 0.99 0.66 1.98 1 3 C0.34 3.66 -0.32 4.32 -1 5 C-1.66 5 -2.32 5 -3 5 C-1.125 1.125 -1.125 1.125 0 0 Z " fill="#252C2E" transform="translate(580,687)"/>
</svg>